<svg width="21" height="18" viewBox="0 0 21 18" fill="none" xmlns="http://www.w3.org/2000/svg">
<path d="M18.7151 0.0116327C18.3966 -0.0236174 18.0504 0.028289 17.7025 0.171789C17.2712 0.348789 10.5138 3.31495 4.21468 6.08195L2.1333 6.99601C1.32734 7.33701 0.92041 7.89159 0.92041 8.63859C0.92041 9.16159 1.13253 9.87098 2.14453 10.289L5.6578 11.7577C5.96159 12.7087 6.66719 14.9168 6.84448 15.5038C6.9499 15.8518 7.21617 16.7285 7.88892 16.9335C8.02692 16.9825 8.17092 17.0077 8.31755 17.0077C8.74209 17.0077 9.04777 16.8016 9.19727 16.6816L11.4303 14.7109L14.1424 17.328C14.2469 17.439 14.7998 17.9999 15.5425 17.9999C16.4692 17.9999 17.1721 17.1949 17.3188 16.4159C17.3983 15.9889 20.0141 2.28698 20.0141 2.28898C20.2489 1.18998 19.8267 0.619867 19.5555 0.376867C19.3231 0.169367 19.0336 0.0468827 18.7151 0.0116327ZM18.0806 2.17179C17.7193 4.06179 15.7498 14.3781 15.4508 15.8652L11.4864 12.039L8.79671 14.4159L9.54167 11.3749C9.54167 11.3749 14.6808 5.94677 14.9903 5.63077C15.2395 5.37777 15.2917 5.28909 15.2917 5.20109C15.2917 5.08409 15.234 4.99991 15.1007 4.99991C14.981 4.99991 14.8183 5.1197 14.732 5.1757C13.6363 5.88851 8.97059 8.66215 6.67415 10.0253L3.34245 8.63663L4.95964 7.92765C9.07951 6.11765 16.4169 2.89379 18.0806 2.17179Z" fill="#FAFAFA"/>
</svg>
