<svg width="23" height="24" viewBox="0 0 23 24" fill="none" xmlns="http://www.w3.org/2000/svg">
<path d="M7.22681 7.375C7.06677 7.375 6.808 7.4375 6.58854 7.6875C6.36908 7.9365 5.75 8.53958 5.75 9.76758C5.75 10.9956 6.60726 12.1826 6.72705 12.3496C6.84588 12.5156 8.38178 15.1152 10.8131 16.1152C12.8332 16.9462 13.2435 16.7822 13.6825 16.7402C14.1214 16.6992 15.0984 16.1377 15.2978 15.5547C15.4971 14.9717 15.4976 14.4702 15.4382 14.3672C15.3787 14.2632 15.2192 14.2012 14.9796 14.0762C14.7409 13.9512 13.565 13.3486 13.3455 13.2656C13.1261 13.1826 12.9656 13.1406 12.8065 13.3906C12.6474 13.6406 12.1902 14.2012 12.0503 14.3672C11.9104 14.5342 11.7714 14.5566 11.5318 14.4316C11.2922 14.3056 10.5219 14.0414 9.60767 13.1914C8.89658 12.5304 8.41677 11.7148 8.27686 11.4648C8.1379 11.2158 8.26375 11.0791 8.38354 10.9551C8.49088 10.8431 8.62126 10.6636 8.74105 10.5176C8.85988 10.3716 8.90109 10.2676 8.98063 10.1016C9.06017 9.93556 9.01946 9.78906 8.96004 9.66406C8.90063 9.53906 8.43532 8.3065 8.22257 7.8125C8.04337 7.3975 7.8541 7.38786 7.68351 7.38086C7.54455 7.37486 7.38589 7.375 7.22681 7.375Z" fill="#FAFAFA"/>
<path d="M10.8565 7.00001C10.8234 6.99968 10.7906 7.00584 10.7599 7.01812C10.7293 7.0304 10.7014 7.04858 10.6779 7.07159C10.6544 7.0946 10.6357 7.12199 10.6229 7.15219C10.6101 7.18239 10.6035 7.2148 10.6034 7.24754C10.6034 7.38756 10.7182 7.4982 10.8565 7.4982C11.4822 7.48641 12.1041 7.59744 12.6862 7.82488C13.2684 8.05232 13.7994 8.39167 14.2485 8.82336C15.1655 9.70535 15.6123 10.8905 15.6293 12.4401C15.6293 12.5769 15.741 12.6907 15.8824 12.6907V12.6807C15.949 12.6809 16.013 12.655 16.0604 12.6086C16.1078 12.5622 16.1348 12.4992 16.1354 12.4332C16.1661 11.7038 16.0467 10.9759 15.7844 10.2936C15.5222 9.61141 15.1227 8.98911 14.6101 8.46457C13.6111 7.49757 12.3452 7.00001 10.8565 7.00001ZM11.2932 8.3158C10.9581 8.3158 10.9581 8.81711 11.2963 8.81711C11.713 8.82381 12.1243 8.91177 12.5066 9.07598C12.889 9.24018 13.2349 9.47741 13.5247 9.7741C13.789 10.0629 13.9921 10.4013 14.1219 10.7693C14.2518 11.1372 14.3058 11.5272 14.2807 11.9162C14.2818 11.9821 14.309 12.0448 14.3563 12.0911C14.4036 12.1374 14.4673 12.1635 14.5337 12.1638L14.5438 12.1769C14.6108 12.1764 14.6749 12.1498 14.7222 12.1029C14.7696 12.056 14.7964 11.9926 14.7969 11.9262C14.8196 10.933 14.5079 10.0998 13.8964 9.43219C13.2817 8.76461 12.4241 8.39018 11.3291 8.3158H11.2932ZM11.7078 9.66347C11.3626 9.65347 11.3493 10.1648 11.6914 10.1748C12.5231 10.2173 12.927 10.6336 12.98 11.4899C12.9812 11.5549 13.008 11.6169 13.0547 11.6626C13.1014 11.7083 13.1643 11.734 13.2299 11.7343H13.24C13.2738 11.7329 13.3069 11.7248 13.3375 11.7106C13.368 11.6963 13.3954 11.6762 13.418 11.6514C13.4406 11.6265 13.458 11.5974 13.4692 11.5659C13.4804 11.5343 13.485 11.5008 13.483 11.4674C13.4237 10.3511 12.809 9.72222 11.7179 9.66409L11.7078 9.66347Z" fill="#FAFAFA"/>
<path d="M11.5 2C6.21571 2 1.91663 6.262 1.91663 11.5C1.91663 14.045 2.95929 16.4875 4.79163 18.2715V22.6172L8.7017 20.5781C9.62075 20.8571 10.5608 21 11.5 21C16.7842 21 21.0833 16.738 21.0833 11.5C21.0833 6.262 16.7842 2 11.5 2ZM11.5 4C15.7272 4 19.1666 7.365 19.1666 11.5C19.1666 15.635 15.7272 19 11.5 19C10.7438 19 9.98165 18.8842 9.23702 18.6582L8.5164 18.4395L7.84444 18.7891L6.70829 19.3828V18.2715V17.4023L6.09811 16.8105C4.65869 15.4085 3.83329 13.472 3.83329 11.5C3.83329 7.365 7.27275 4 11.5 4Z" fill="#FAFAFA"/>
</svg>
