<svg width="18" height="18" viewBox="0 0 18 18" fill="none" xmlns="http://www.w3.org/2000/svg">
<path d="M5.33816 0C2.80926 0 0.751831 2.243 0.751831 5V13C0.751831 15.757 2.80926 18 5.33816 18H12.6763C15.2052 18 17.2626 15.757 17.2626 13V5C17.2626 2.243 15.2052 0 12.6763 0H5.33816ZM5.33816 2H12.6763C14.1935 2 15.4281 3.346 15.4281 5V13C15.4281 14.654 14.1935 16 12.6763 16H5.33816C3.821 16 2.58636 14.654 2.58636 13V5C2.58636 3.346 3.821 2 5.33816 2ZM13.5936 3C13.3503 3 13.117 3.10536 12.945 3.29289C12.7729 3.48043 12.6763 3.73478 12.6763 4C12.6763 4.26522 12.7729 4.51957 12.945 4.70711C13.117 4.89464 13.3503 5 13.5936 5C13.8368 5 14.0701 4.89464 14.2422 4.70711C14.4142 4.51957 14.5108 4.26522 14.5108 4C14.5108 3.73478 14.4142 3.48043 14.2422 3.29289C14.0701 3.10536 13.8368 3 13.5936 3ZM9.00723 4C6.47832 4 4.4209 6.243 4.4209 9C4.4209 11.757 6.47832 14 9.00723 14C11.5361 14 13.5936 11.757 13.5936 9C13.5936 6.243 11.5361 4 9.00723 4ZM9.00723 6C10.5244 6 11.759 7.346 11.759 9C11.759 10.654 10.5244 12 9.00723 12C7.49007 12 6.25543 10.654 6.25543 9C6.25543 7.346 7.49007 6 9.00723 6Z" fill="#3A3A3A"/>
</svg>
