<svg width="19" height="18" viewBox="0 0 19 18" fill="none" xmlns="http://www.w3.org/2000/svg">
<path d="M16.789 0.0116327C16.4968 -0.0236174 16.1793 0.028289 15.8602 0.171789C15.4646 0.348789 9.26625 3.31495 3.48828 6.08195L1.5791 6.99601C0.839818 7.33701 0.466553 7.89159 0.466553 8.63859C0.466553 9.16159 0.661124 9.87098 1.5894 10.289L4.812 11.7577C5.09065 12.7087 5.73788 14.9168 5.9005 15.5038C5.9972 15.8518 6.24144 16.7285 6.85853 16.9335C6.98511 16.9825 7.1172 17.0077 7.25169 17.0077C7.64111 17.0077 7.9215 16.8016 8.05863 16.6816L10.1069 14.7109L12.5947 17.328C12.6905 17.439 13.1976 17.9999 13.8789 17.9999C14.7289 17.9999 15.3737 17.1949 15.5082 16.4159C15.5812 15.9889 17.9805 2.28698 17.9805 2.28898C18.1959 1.18998 17.8087 0.619867 17.5599 0.376867C17.3467 0.169367 17.0812 0.0468827 16.789 0.0116327ZM16.207 2.17179C15.8756 4.06179 14.069 14.3781 13.7948 15.8652L10.1584 12.039L7.69122 14.4159L8.37454 11.3749C8.37454 11.3749 13.0885 5.94677 13.3724 5.63077C13.601 5.37777 13.6488 5.28909 13.6488 5.20109C13.6488 5.08409 13.5959 4.99991 13.4737 4.99991C13.3638 4.99991 13.2146 5.1197 13.1355 5.1757C12.1304 5.88851 7.85071 8.66215 5.74427 10.0253L2.68821 8.63663L4.1716 7.92765C7.95062 6.11765 14.681 2.89379 16.207 2.17179Z" fill="#3A3A3A"/>
</svg>
