<svg width="19" height="20" viewBox="0 0 19 20" fill="none" xmlns="http://www.w3.org/2000/svg">
<path d="M9.2984 0C4.24793 0 0.136532 4.47837 0.134697 9.98438C0.13378 11.7444 0.556625 13.4626 1.35831 14.9766L0.11499 20L4.91451 18.7637C6.2528 19.5597 7.75935 19.9775 9.29302 19.9785H9.2966C14.3462 19.9785 18.4558 15.4991 18.4585 9.99414C18.4603 7.32514 17.5083 4.81573 15.7784 2.92773C14.0484 1.04073 11.7493 0.001 9.2984 0ZM9.2966 2C11.2559 2.001 13.0971 2.8338 14.4813 4.3418C15.8655 5.8518 16.6258 7.85819 16.624 9.99219C16.6221 14.3962 13.3363 17.9785 9.29481 17.9785C8.0721 17.9775 6.86093 17.6428 5.79415 17.0078L5.17607 16.6406L4.4935 16.8164L2.68763 17.2812L3.12835 15.4961L3.32721 14.6953L2.94741 13.9766C2.30715 12.7686 1.96831 11.3874 1.96923 9.98438C1.97106 5.58238 5.25788 2 9.2966 2ZM6.05572 5.375C5.90253 5.375 5.65486 5.4375 5.4448 5.6875C5.23475 5.9365 4.6422 6.53958 4.6422 7.76758C4.6422 8.99558 5.46272 10.1826 5.57738 10.3496C5.69112 10.5156 7.16119 13.1152 9.4883 14.1152C11.4219 14.9462 11.8146 14.7822 12.2347 14.7402C12.6548 14.6992 13.59 14.1377 13.7808 13.5547C13.9716 12.9717 13.972 12.4702 13.9152 12.3672C13.8583 12.2632 13.7056 12.2012 13.4763 12.0762C13.2479 11.9512 12.1223 11.3486 11.9122 11.2656C11.7022 11.1826 11.5485 11.1406 11.3963 11.3906C11.244 11.6406 10.8064 12.2012 10.6725 12.3672C10.5386 12.5342 10.4056 12.5566 10.1762 12.4316C9.94693 12.3056 9.20962 12.0414 8.33455 11.1914C7.65394 10.5304 7.19469 9.71484 7.06077 9.46484C6.92776 9.21584 7.04823 9.07908 7.16289 8.95508C7.26562 8.84308 7.39041 8.66358 7.50507 8.51758C7.61881 8.37158 7.65825 8.26756 7.73439 8.10156C7.81052 7.93556 7.77155 7.78906 7.71468 7.66406C7.65781 7.53906 7.21245 6.3065 7.00881 5.8125C6.83729 5.3975 6.65613 5.38786 6.49285 5.38086C6.35985 5.37486 6.20798 5.375 6.05572 5.375Z" fill="#3A3A3A"/>
</svg>
